<?xml version="1.0" standalone="no"?>
<!DOCTYPE svg PUBLIC "-//W3C//DTD SVG 20010904//EN"
 "http://www.w3.org/TR/2001/REC-SVG-20010904/DTD/svg10.dtd">
<svg version="1.0" xmlns="http://www.w3.org/2000/svg"
 width="1408.000000pt" height="768.000000pt" viewBox="0 0 1408.000000 768.000000"
 preserveAspectRatio="xMidYMid meet">

<g transform="translate(0.000000,768.000000) scale(0.100000,-0.100000)"
fill="#000000" stroke="none">
<path d="M6978 6893 c29 -2 74 -2 100 0 26 2 2 3 -53 3 -55 0 -76 -1 -47 -3z"/>
<path d="M7178 6893 c28 -2 76 -2 105 0 28 2 5 3 -53 3 -58 0 -81 -1 -52 -3z"/>
<path d="M6848 6883 c12 -2 30 -2 40 0 9 3 -1 5 -23 4 -22 0 -30 -2 -17 -4z"/>
<path d="M7378 6883 c12 -2 30 -2 40 0 9 3 -1 5 -23 4 -22 0 -30 -2 -17 -4z"/>
<path d="M6010 6736 c-322 -121 -573 -264 -801 -454 -343 -287 -646 -743 -789
-1188 -29 -89 -94 -374 -87 -381 2 -1 24 48 50 110 48 113 180 360 218 407 11
14 4 -4 -16 -40 -123 -221 -210 -469 -257 -727 -19 -109 -22 -161 -22 -348 1
-556 149 -1080 438 -1558 116 -194 309 -429 448 -548 l63 -54 -73 79 c-153
166 -301 388 -407 611 -233 488 -311 1025 -225 1550 60 372 197 712 413 1029
l61 89 -28 23 c-15 13 -31 24 -36 24 -15 0 -112 -113 -187 -219 -157 -223
-255 -432 -328 -702 -21 -79 -24 -86 -20 -41 3 29 19 106 36 172 69 276 194
539 356 749 35 46 67 89 69 96 5 11 -62 69 -89 78 -14 4 37 157 84 251 163
323 482 622 934 874 61 34 160 82 220 108 61 26 112 48 114 50 15 13 -39 -3
-139 -40z"/>
<path d="M7058 6753 c6 -2 18 -2 25 0 6 3 1 5 -13 5 -14 0 -19 -2 -12 -5z"/>
<path d="M7368 6753 c7 -3 16 -2 19 1 4 3 -2 6 -13 5 -11 0 -14 -3 -6 -6z"/>
<path d="M6738 6713 c6 -2 18 -2 25 0 6 3 1 5 -13 5 -14 0 -19 -2 -12 -5z"/>
<path d="M6688 6703 c7 -3 16 -2 19 1 4 3 -2 6 -13 5 -11 0 -14 -3 -6 -6z"/>
<path d="M7010 6690 c-52 -5 -138 -16 -190 -25 -102 -17 -353 -75 -348 -80 2
-2 53 5 113 15 603 104 1276 -19 1829 -334 363 -206 642 -456 977 -876 372
-467 593 -924 674 -1400 l13 -75 1 70 c2 166 -47 473 -113 701 -98 342 -360
782 -636 1068 -431 448 -915 730 -1490 870 -243 58 -603 87 -830 66z"/>
<path d="M7848 6683 c7 -3 16 -2 19 1 4 3 -2 6 -13 5 -11 0 -14 -3 -6 -6z"/>
<path d="M7888 6673 c7 -3 16 -2 19 1 4 3 -2 6 -13 5 -11 0 -14 -3 -6 -6z"/>
<path d="M6732 6413 c-27 -4 -31 -8 -28 -26 3 -12 7 -114 11 -227 3 -113 8
-245 12 -293 l6 -88 156 6 c86 3 198 8 249 11 l92 6 0 46 c0 97 10 92 -170 85
l-157 -6 -6 84 c-4 46 -10 157 -13 247 l-7 162 -56 -2 c-31 0 -71 -3 -89 -5z"/>
<path d="M7465 6083 c-124 -142 -225 -261 -225 -264 0 -4 37 -18 83 -32 l82
-26 25 32 c14 17 34 41 45 53 l20 22 130 -42 c72 -22 136 -45 143 -49 6 -5 12
-23 12 -41 0 -84 5 -90 94 -119 45 -15 85 -27 89 -27 4 0 4 12 2 28 -3 15 -23
162 -45 327 -23 165 -45 311 -49 324 -5 18 -22 28 -81 47 -41 13 -80 24 -87
24 -7 0 -114 -116 -238 -257z m279 0 c4 -38 9 -89 12 -115 l6 -46 -86 26 c-47
14 -86 28 -86 32 0 9 134 170 141 170 3 0 9 -30 13 -67z"/>
<path d="M8840 6306 c0 -2 8 -10 18 -17 15 -13 16 -12 3 4 -13 16 -21 21 -21
13z"/>
<path d="M6078 6248 c-91 -36 -82 -11 -98 -278 -19 -325 -26 -455 -25 -457 1
-2 38 12 82 30 89 35 93 40 93 131 l0 42 139 56 139 55 50 -50 51 -50 81 34
c45 19 82 38 81 42 -1 11 -492 472 -505 474 -6 1 -46 -12 -88 -29z m222 -318
c0 -7 -141 -60 -159 -60 -10 0 -12 9 -7 38 3 20 6 71 6 112 l0 75 80 -80 c44
-44 80 -82 80 -85z"/>
<path d="M8800 6276 c0 -3 9 -10 20 -16 11 -6 20 -8 20 -6 0 3 -9 10 -20 16
-11 6 -20 8 -20 6z"/>
<path d="M8880 6276 c0 -2 8 -10 18 -17 15 -13 16 -12 3 4 -13 16 -21 21 -21
13z"/>
<path d="M8850 6246 c0 -2 14 -14 30 -26 17 -12 30 -19 30 -16 0 2 -13 14 -30
26 -16 12 -30 19 -30 16z"/>
<path d="M8930 6236 c0 -2 8 -10 18 -17 15 -13 16 -12 3 4 -13 16 -21 21 -21
13z"/>
<path d="M5499 6179 l-24 -20 28 17 c15 9 27 18 27 20 0 8 -8 4 -31 -17z"/>
<path d="M9115 6070 c21 -22 41 -40 44 -40 3 0 -13 18 -34 40 -21 22 -41 40
-44 40 -3 0 13 -18 34 -40z"/>
<path d="M9060 6086 c0 -2 8 -10 18 -17 15 -13 16 -12 3 4 -13 16 -21 21 -21
13z"/>
<path d="M8317 6006 l-35 -53 98 -68 99 -67 -79 -118 c-79 -117 -118 -160
-149 -160 -44 0 -85 45 -118 126 l-8 22 -63 -20 c-35 -11 -66 -26 -68 -33 -11
-27 39 -116 92 -164 122 -112 256 -119 351 -19 24 26 220 304 256 365 5 7 -36
42 -110 95 -163 117 -210 148 -221 148 -5 0 -25 -24 -45 -54z"/>
<path d="M9100 6056 c0 -2 8 -10 18 -17 15 -13 16 -12 3 4 -13 16 -21 21 -21
13z"/>
<path d="M5049 5933 c-13 -16 -12 -17 4 -4 16 13 21 21 13 21 -2 0 -10 -8 -17
-17z"/>
<path d="M5159 5913 l-34 -38 38 34 c34 33 42 41 34 41 -2 0 -19 -17 -38 -37z"/>
<path d="M5456 5875 c-58 -22 -92 -50 -304 -246 l-73 -68 217 -236 217 -236
41 38 c23 22 98 92 168 157 131 121 178 187 178 247 0 96 -95 178 -190 163
l-35 -6 0 50 c0 110 -110 178 -219 137z m62 -167 c7 -7 12 -26 12 -44 0 -26
-12 -43 -70 -98 -39 -36 -74 -66 -79 -66 -5 0 -25 19 -45 43 l-35 42 27 29
c83 88 158 126 190 94z m199 -184 c13 -20 13 -29 3 -54 -12 -29 -149 -160
-168 -160 -5 0 -27 21 -48 47 l-38 46 69 65 c103 94 148 108 182 56z"/>
<path d="M9340 5830 c29 -33 54 -60 57 -60 3 0 -18 27 -47 60 -29 33 -54 60
-57 60 -3 0 18 -27 47 -60z"/>
<path d="M4658 5758 c-85 -116 -98 -137 -87 -144 7 -4 9 -3 5 4 -3 5 -2 12 2
14 9 3 115 158 108 158 -2 0 -14 -15 -28 -32z"/>
<path d="M4973 5740 c-23 -22 -39 -40 -36 -40 4 0 -4 -12 -18 -27 l-24 -28 24
20 c23 20 106 115 99 115 -1 0 -22 -18 -45 -40z"/>
<path d="M4920 5750 c-6 -11 -8 -20 -6 -20 3 0 10 9 16 20 6 11 8 20 6 20 -3
0 -10 -9 -16 -20z"/>
<path d="M4885 5690 c-9 -16 -13 -30 -11 -30 3 0 12 14 21 30 9 17 13 30 11
30 -3 0 -12 -13 -21 -30z"/>
<path d="M8649 5443 c-123 -119 -225 -219 -227 -223 -1 -3 25 -32 58 -65 l59
-59 78 74 c43 41 146 140 229 220 l151 146 -58 62 c-32 34 -60 62 -62 62 -3 0
-105 -98 -228 -217z"/>
<path d="M4854 5598 l-29 -33 33 29 c30 28 37 36 29 36 -2 0 -16 -15 -33 -32z"/>
<path d="M4545 5601 c-3 -5 -2 -12 3 -15 5 -3 9 1 9 9 0 17 -3 19 -12 6z"/>
<path d="M4527 5574 c-3 -3 -3 -13 0 -22 4 -10 2 -13 -5 -8 -6 3 -13 2 -16 -3
-4 -5 1 -8 10 -7 19 3 38 32 26 40 -5 3 -12 3 -15 0z"/>
<path d="M4483 5508 c-15 -20 -25 -38 -20 -38 3 0 12 11 21 25 17 26 16 35 -1
13z"/>
<path d="M4506 5503 c-6 -14 -5 -15 5 -6 7 7 10 15 7 18 -3 3 -9 -2 -12 -12z"/>
<path d="M4482 5455 c-17 -37 -14 -45 4 -12 9 16 14 31 11 33 -2 2 -9 -7 -15
-21z"/>
<path d="M6753 5463 c9 -2 23 -2 30 0 6 3 -1 5 -18 5 -16 0 -22 -2 -12 -5z"/>
<path d="M6698 5453 c7 -3 16 -2 19 1 4 3 -2 6 -13 5 -11 0 -14 -3 -6 -6z"/>
<path d="M6648 5443 c7 -3 16 -2 19 1 4 3 -2 6 -13 5 -11 0 -14 -3 -6 -6z"/>
<path d="M9260 5426 c0 -2 8 -10 18 -17 15 -13 16 -12 3 4 -13 16 -21 21 -21
13z"/>
<path d="M7450 5400 c8 -5 20 -10 25 -10 6 0 3 5 -5 10 -8 5 -19 10 -25 10 -5
0 -3 -5 5 -10z"/>
<path d="M6893 5383 c9 -2 23 -2 30 0 6 3 -1 5 -18 5 -16 0 -22 -2 -12 -5z"/>
<path d="M9344 5327 c21 -26 40 -47 43 -47 7 0 -56 78 -70 87 -6 4 6 -14 27
-40z"/>
<path d="M6274 5304 c-18 -14 -18 -15 4 -4 12 6 22 13 22 15 0 8 -5 6 -26 -11z"/>
<path d="M6946 5305 c-100 -21 -250 -72 -336 -115 -193 -97 -400 -286 -495
-450 -5 -8 19 10 53 42 175 161 336 251 552 310 111 29 336 33 446 6 208 -51
348 -139 528 -332 133 -143 195 -179 317 -185 44 -2 85 2 97 8 29 16 34 -7 22
-103 -12 -97 -43 -202 -82 -281 l-30 -60 62 60 c112 109 215 287 262 451 30
108 31 266 1 340 -31 78 -68 120 -136 154 -112 56 -228 33 -291 -57 -38 -55
-46 -133 -21 -188 39 -81 157 -117 224 -67 38 28 40 14 5 -28 -73 -86 -178
-80 -263 16 -63 72 -78 161 -41 253 l19 50 -65 37 c-95 53 -193 92 -303 121
-82 22 -122 26 -276 29 -129 2 -200 -1 -249 -11z"/>
<path d="M9160 5245 c13 -14 26 -25 28 -25 3 0 -5 11 -18 25 -13 14 -26 25
-28 25 -3 0 5 -11 18 -25z"/>
<path d="M6474 5214 c-18 -14 -18 -15 4 -4 12 6 22 13 22 15 0 8 -5 6 -26 -11z"/>
<path d="M4302 5185 c-17 -37 -14 -45 4 -12 9 16 14 31 11 33 -2 2 -9 -7 -15
-21z"/>
<path d="M9190 5206 c0 -2 8 -10 18 -17 15 -13 16 -12 3 4 -13 16 -21 21 -21
13z"/>
<path d="M6419 5179 l-24 -20 28 17 c15 9 27 18 27 20 0 8 -8 4 -31 -17z"/>
<path d="M4356 5155 c-3 -9 -6 -22 -5 -28 0 -7 5 -1 10 12 5 13 8 26 5 28 -2
2 -6 -3 -10 -12z"/>
<path d="M5930 5043 l-85 -88 88 85 c81 79 92 90 84 90 -1 0 -41 -39 -87 -87z"/>
<path d="M5215 5003 c-31 -49 -85 -146 -120 -218 -278 -568 -295 -1203 -48
-1787 25 -60 49 -108 54 -108 13 0 79 41 79 50 0 4 -21 56 -46 116 -88 210
-136 413 -155 653 -31 403 84 856 309 1215 34 54 62 101 62 105 0 6 -65 61
-73 61 -3 0 -31 -39 -62 -87z"/>
<path d="M8762 5059 l-33 -30 56 -87 c73 -112 175 -321 215 -442 36 -108 72
-258 91 -375 20 -120 17 -466 -4 -590 -35 -198 -110 -444 -172 -566 -15 -27
-14 -28 28 -53 53 -32 50 -35 116 133 55 139 100 302 127 456 25 141 26 528 1
670 -41 234 -96 404 -197 610 -66 135 -164 295 -185 301 -5 2 -25 -10 -43 -27z"/>
<path d="M4331 5064 c0 -11 3 -14 6 -6 3 7 2 16 -1 19 -3 4 -6 -2 -5 -13z"/>
<path d="M6129 4913 c-13 -16 -12 -17 4 -4 16 13 21 21 13 21 -2 0 -10 -8 -17
-17z"/>
<path d="M9323 4878 c3 -7 21 -49 40 -93 78 -183 146 -431 184 -675 26 -170
24 -516 -5 -705 -86 -557 -288 -980 -675 -1408 -68 -75 -68 -76 -52 -101 l17
-26 38 30 c69 54 289 290 363 389 128 169 253 389 307 539 35 97 34 67 -1 -39
-109 -325 -327 -668 -583 -919 -31 -30 -56 -57 -56 -60 0 -4 20 -33 45 -66 24
-32 45 -62 45 -66 0 -10 -129 -113 -230 -184 -318 -224 -679 -384 -1051 -468
-215 -48 -412 -69 -664 -69 -301 0 -541 30 -806 103 -723 199 -1329 645 -1752
1290 -228 348 -382 726 -463 1135 -21 106 -23 112 -18 50 19 -257 104 -593
221 -880 100 -247 294 -575 469 -795 89 -111 314 -335 434 -431 712 -571 1597
-779 2475 -584 143 32 412 120 527 172 595 271 1079 717 1338 1232 186 371
296 872 275 1256 -21 402 -92 716 -236 1045 -53 120 -173 340 -186 340 -3 0
-3 -6 0 -12z"/>
<path d="M7192 4734 c-12 -8 -22 -25 -22 -38 0 -22 -4 -24 -122 -33 -112 -9
-126 -8 -158 8 -32 17 -62 19 -348 19 -270 0 -319 -2 -348 -16 -68 -32 -69
-37 -72 -444 l-3 -365 40 45 40 45 1 305 c0 260 2 309 16 328 15 22 16 22 319
22 327 0 328 0 340 -53 6 -28 19 -154 46 -456 l22 -244 104 -49 103 -48 0
-395 c0 -217 -1 -395 -3 -395 -1 0 -18 5 -37 11 -55 17 -292 70 -296 66 -2 -2
19 -25 46 -52 46 -45 55 -50 162 -76 62 -16 128 -29 145 -29 18 0 74 16 125
35 l92 34 48 -50 c65 -68 124 -93 213 -93 62 0 87 7 215 58 80 31 239 94 355
139 186 73 215 87 256 127 108 107 120 323 25 484 -48 83 -105 121 -394 263
-230 112 -273 137 -266 151 4 9 9 29 12 45 3 20 10 27 27 27 13 0 25 -5 27
-10 7 -22 48 21 48 50 0 54 -53 80 -78 39 -13 -21 -14 -21 -45 13 -18 19 -40
39 -49 44 -14 7 -16 18 -11 48 7 44 26 55 52 32 16 -15 19 -15 34 2 23 25 21
65 -3 87 -19 17 -21 17 -38 2 -27 -25 -36 -22 -90 31 -44 42 -50 53 -56 102
-13 102 -28 153 -52 177 -23 22 -27 23 -211 23 -154 0 -193 -3 -211 -16z m373
-144 c6 -47 14 -91 18 -97 6 -9 0 -13 -21 -13 -29 0 -30 1 -25 39 8 57 -4 105
-32 135 l-25 27 37 -3 38 -3 10 -85z m-121 29 c22 -17 26 -28 24 -57 -4 -44 5
-42 -283 -80 -143 -19 -212 -25 -216 -18 -4 6 -10 37 -14 69 l-6 57 28 1 c15
0 116 11 223 24 107 13 200 23 206 24 6 1 23 -9 38 -20z m221 -201 c15 -7 24
-17 21 -25 -3 -8 -1 -11 4 -8 12 7 13 -25 2 -42 -9 -14 -89 -29 -322 -63 -80
-12 -163 -25 -185 -30 -41 -9 -55 -2 -55 29 0 8 -10 25 -22 38 -12 13 -19 25
-17 27 3 4 377 62 541 85 4 1 19 -4 33 -11z m-640 -104 c26 -10 48 -62 40
-100 -12 -67 -90 -82 -120 -23 -40 76 8 150 80 123z m725 -124 c27 -17 -2 -27
-155 -55 -82 -14 -210 -37 -284 -51 -127 -23 -134 -23 -147 -7 -7 10 -14 20
-14 23 0 7 498 98 545 99 22 0 47 -4 55 -9z m-643 -146 c36 -56 9 -134 -48
-134 -56 0 -93 97 -52 142 25 28 79 24 100 -8z m958 -221 c137 -69 269 -141
292 -160 78 -63 124 -167 124 -280 0 -113 -42 -193 -119 -226 -70 -31 -452
-177 -462 -177 -5 0 1 21 12 48 45 100 33 274 -28 394 -55 109 -108 147 -448
327 -118 62 -203 113 -195 115 8 3 124 30 259 59 230 50 247 53 280 39 19 -8
147 -70 285 -139z m-674 -140 c27 -14 47 -28 45 -30 -4 -5 -184 -53 -197 -53
-5 0 -9 20 -9 45 0 42 2 45 33 54 53 15 77 12 128 -16z m297 -162 c85 -44 152
-149 174 -272 27 -153 -51 -319 -164 -349 -171 -47 -329 135 -316 364 7 127
55 213 143 259 42 22 118 21 163 -2z"/>
<path d="M7613 4373 c9 -2 23 -2 30 0 6 3 -1 5 -18 5 -16 0 -22 -2 -12 -5z"/>
<path d="M7667 4369 c7 -7 15 -10 18 -7 3 3 -2 9 -12 12 -14 6 -15 5 -6 -5z"/>
<path d="M7548 4363 c7 -3 16 -2 19 1 4 3 -2 6 -13 5 -11 0 -14 -3 -6 -6z"/>
<path d="M7498 4353 c7 -3 16 -2 19 1 4 3 -2 6 -13 5 -11 0 -14 -3 -6 -6z"/>
<path d="M7298 4323 c7 -3 16 -2 19 1 4 3 -2 6 -13 5 -11 0 -14 -3 -6 -6z"/>
<path d="M7238 4313 c7 -3 16 -2 19 1 4 3 -2 6 -13 5 -11 0 -14 -3 -6 -6z"/>
<path d="M7178 4303 c6 -2 18 -2 25 0 6 3 1 5 -13 5 -14 0 -19 -2 -12 -5z"/>
<path d="M6977 4263 c-13 -12 -7 -54 9 -60 23 -8 47 20 39 46 -6 20 -34 28
-48 14z"/>
<path d="M7037 4023 c-12 -11 -8 -61 6 -66 21 -7 37 4 37 27 0 32 -27 56 -43
39z"/>
<path d="M7561 3313 c-28 -23 -43 -87 -31 -134 21 -79 101 -109 147 -55 41 49
26 168 -26 196 -29 15 -66 12 -90 -7z"/>
<path d="M9551 4645 c0 -5 6 -21 14 -35 8 -14 14 -20 14 -15 0 6 -6 21 -14 35
-8 14 -14 21 -14 15z"/>
<path d="M5936 4595 c-9 -26 -7 -32 5 -12 6 10 9 21 6 23 -2 3 -7 -2 -11 -11z"/>
<path d="M6742 4548 c-27 -27 -5 -88 31 -88 30 0 47 18 47 50 0 31 -17 50 -45
50 -12 0 -26 -5 -33 -12z"/>
<path d="M6274 4411 c-8 -8 -4 -391 4 -391 4 0 38 16 75 36 l67 35 0 100 0 99
75 0 c98 0 139 -17 154 -63 10 -29 9 -41 -2 -64 -25 -48 -59 -71 -177 -123
-224 -100 -330 -210 -366 -381 -14 -65 -13 -147 2 -171 2 -4 26 3 52 15 l47
21 1 76 c1 58 8 90 30 145 l29 70 5 -105 5 -105 195 0 c211 0 246 6 302 53 99
84 90 273 -18 342 l-43 27 29 28 c42 40 60 85 60 151 0 81 -29 137 -88 172
-43 24 -57 27 -162 30 -63 1 -150 3 -193 5 -43 1 -80 0 -83 -2z m349 -475 c48
-20 69 -49 69 -95 -1 -87 -40 -111 -177 -111 l-95 0 0 68 c0 75 6 85 70 117
32 17 75 32 93 34 4 1 22 -5 40 -13z"/>
<path d="M4231 4204 c0 -11 3 -14 6 -6 3 7 2 16 -1 19 -3 4 -6 -2 -5 -13z"/>
<path d="M5502 4155 c0 -16 2 -22 5 -12 2 9 2 23 0 30 -3 6 -5 -1 -5 -18z"/>
<path d="M4042 4100 c0 -19 2 -27 5 -17 2 9 2 25 0 35 -3 9 -5 1 -5 -18z"/>
<path d="M4041 4044 c0 -11 3 -14 6 -6 3 7 2 16 -1 19 -3 4 -6 -2 -5 -13z"/>
<path d="M4041 4004 c0 -11 3 -14 6 -6 3 7 2 16 -1 19 -3 4 -6 -2 -5 -13z"/>
<path d="M5426 3865 c11 -176 73 -415 145 -557 139 -276 381 -533 644 -685 93
-54 176 -95 181 -90 2 2 -20 19 -49 37 -28 19 -89 71 -134 115 -102 101 -146
185 -146 275 0 141 130 251 267 226 19 -4 58 -22 87 -41 28 -19 52 -35 54 -35
11 0 35 90 35 133 -1 165 -170 265 -325 191 -49 -23 -116 -90 -140 -140 -9
-20 -22 -67 -28 -103 -6 -36 -12 -68 -13 -70 -4 -5 -124 69 -184 115 -72 54
-173 162 -218 233 -58 91 -119 231 -143 326 -36 151 -38 156 -33 70z"/>
<path d="M7032 3718 c-19 -19 -15 -66 8 -78 15 -8 24 -6 40 10 25 25 25 35 0
60 -23 23 -31 25 -48 8z"/>
<path d="M4061 3694 c0 -11 3 -14 6 -6 3 7 2 16 -1 19 -3 4 -6 -2 -5 -13z"/>
<path d="M10021 3644 c0 -11 3 -14 6 -6 3 7 2 16 -1 19 -3 4 -6 -2 -5 -13z"/>
<path d="M5596 3637 c3 -10 9 -15 12 -12 3 3 0 11 -7 18 -10 9 -11 8 -5 -6z"/>
<path d="M10023 3545 c0 -38 2 -53 4 -32 2 20 2 52 0 70 -2 17 -4 1 -4 -38z"/>
<path d="M9814 3445 c0 -82 2 -115 3 -72 2 43 2 110 0 150 -1 40 -3 5 -3 -78z"/>
<path d="M5990 3496 c0 -2 8 -10 18 -17 15 -13 16 -12 3 4 -13 16 -21 21 -21
13z"/>
<path d="M4321 3444 c0 -11 3 -14 6 -6 3 7 2 16 -1 19 -3 4 -6 -2 -5 -13z"/>
<path d="M5780 3375 c30 -30 57 -55 59 -55 3 0 -19 25 -49 55 -30 30 -57 55
-59 55 -3 0 19 -25 49 -55z"/>
<path d="M6600 3406 c0 -2 8 -10 18 -17 15 -13 16 -12 3 4 -13 16 -21 21 -21
13z"/>
<path d="M10012 3330 c0 -14 2 -19 5 -12 2 6 2 18 0 25 -3 6 -5 1 -5 -13z"/>
<path d="M9801 3184 c0 -11 3 -14 6 -6 3 7 2 16 -1 19 -3 4 -6 -2 -5 -13z"/>
<path d="M6220 3092 c-40 -20 -80 -88 -80 -138 0 -49 53 -143 120 -211 133
-137 317 -240 528 -295 117 -30 363 -32 492 -4 262 57 495 177 690 356 l65 60
-165 -79 c-168 -80 -303 -129 -420 -152 -97 -19 -328 -16 -425 5 -238 52 -434
178 -581 372 -30 41 -68 81 -84 89 -39 20 -97 19 -140 -3z"/>
<path d="M9791 3094 c0 -11 3 -14 6 -6 3 7 2 16 -1 19 -3 4 -6 -2 -5 -13z"/>
<path d="M9781 3014 c0 -11 3 -14 6 -6 3 7 2 16 -1 19 -3 4 -6 -2 -5 -13z"/>
<path d="M5248 2767 l-206 -171 41 -51 c23 -27 42 -52 44 -54 1 -2 27 17 57
43 30 25 58 46 63 46 4 -1 28 -26 52 -56 86 -107 206 -145 293 -91 102 62 121
169 51 281 -21 32 -182 228 -187 226 -1 -1 -94 -78 -208 -173z m266 -63 c56
-68 60 -102 17 -145 -43 -42 -72 -38 -132 18 -78 73 -78 74 -8 132 33 28 65
51 69 51 5 0 29 -25 54 -56z"/>
<path d="M8622 2903 c-52 -26 -125 -97 -154 -150 -53 -97 -46 -176 19 -234 33
-29 41 -31 92 -27 50 3 67 11 148 67 72 51 96 62 116 57 53 -13 36 -79 -37
-143 -26 -23 -67 -49 -91 -58 l-42 -17 17 -46 c10 -25 23 -48 28 -50 23 -7
104 39 158 90 122 116 151 231 78 317 -57 68 -135 58 -260 -33 -76 -56 -109
-67 -132 -44 -35 35 12 117 96 165 26 15 49 28 51 29 7 6 -32 94 -43 94 -6 0
-26 -8 -44 -17z"/>
<path d="M4570 2734 c0 -6 7 -19 16 -30 14 -18 14 -18 3 6 -14 31 -19 36 -19
24z"/>
<path d="M9691 2624 c0 -11 3 -14 6 -6 3 7 2 16 -1 19 -3 4 -6 -2 -5 -13z"/>
<path d="M4420 2570 c6 -11 13 -20 16 -20 2 0 0 9 -6 20 -6 11 -13 20 -16 20
-2 0 0 -9 6 -20z"/>
<path d="M5658 2337 c-80 -116 -147 -217 -151 -223 -8 -14 103 -90 112 -77 3
6 21 33 40 61 18 29 36 52 39 52 3 0 25 -11 49 -25 l43 -26 0 -94 0 -94 60
-41 60 -41 0 104 0 104 46 7 c98 13 164 88 164 186 0 68 -31 122 -97 171 -42
32 -178 124 -209 142 -8 4 -66 -73 -156 -206z m254 12 c60 -38 78 -64 78 -106
0 -37 -26 -69 -64 -79 -28 -7 -93 21 -138 58 l-28 23 43 67 c23 37 46 67 51
68 5 0 31 -14 58 -31z"/>
<path d="M8250 2511 c-43 -13 -102 -47 -166 -94 -33 -24 -69 -50 -80 -56 -63
-36 -69 -20 91 -260 80 -122 148 -221 151 -221 12 0 104 66 104 75 0 6 -16 34
-35 62 -19 29 -35 56 -35 61 0 9 77 62 90 62 5 0 44 -15 87 -34 l78 -33 63 42
63 43 -98 38 c-54 21 -99 38 -100 39 -1 0 4 22 11 50 8 29 10 63 5 83 -23 106
-131 173 -229 143z m90 -151 c21 -39 12 -85 -22 -116 -32 -30 -92 -74 -100
-74 -7 0 -101 140 -97 144 33 26 107 70 127 76 34 9 79 -6 92 -30z"/>
<path d="M9776 2463 c-6 -14 -5 -15 5 -6 7 7 10 15 7 18 -3 3 -9 -2 -12 -12z"/>
<path d="M9576 2325 c-9 -26 -7 -32 5 -12 6 10 9 21 6 23 -2 3 -7 -2 -11 -11z"/>
<path d="M4600 2286 c0 -2 8 -10 18 -17 15 -13 16 -12 3 4 -13 16 -21 21 -21
13z"/>
<path d="M7710 2229 c-91 -33 -175 -64 -187 -69 -22 -9 -21 -11 59 -252 44
-134 84 -247 88 -251 4 -4 91 22 193 58 103 36 191 65 196 65 19 0 20 18 4 61
-9 24 -18 45 -18 47 -1 1 -65 -20 -143 -47 l-141 -50 -16 50 c-10 28 -13 54
-9 59 5 5 56 25 114 45 57 19 105 37 107 39 2 1 -4 24 -13 50 -13 37 -20 46
-33 41 -45 -18 -207 -75 -213 -75 -5 0 -38 83 -38 96 0 1 59 23 131 50 122 44
130 49 125 70 -11 41 -25 74 -33 73 -5 0 -82 -27 -173 -60z"/>
<path d="M9551 2263 c-10 -26 -10 -27 4 -9 8 11 15 23 15 28 0 15 -7 8 -19
-19z"/>
<path d="M6167 2021 c-54 -131 -97 -241 -97 -244 0 -7 83 -45 107 -49 12 -2
39 57 114 242 l98 245 -47 22 c-26 12 -54 22 -63 22 -12 1 -42 -64 -112 -238z"/>
<path d="M6476 2171 c-2 -3 -14 -60 -26 -126 -12 -66 -33 -176 -46 -243 -13
-68 -24 -130 -24 -137 0 -8 19 -15 48 -19 26 -4 54 -9 63 -12 13 -3 18 5 23
38 4 24 16 93 28 155 l21 112 71 -122 c149 -254 134 -235 189 -242 26 -4 51
-4 54 -1 11 11 84 509 76 517 -4 4 -33 10 -64 14 l-57 7 -12 -88 c-7 -49 -18
-118 -24 -154 l-12 -65 -18 35 c-42 79 -187 320 -194 320 -4 1 -26 5 -50 9
-23 5 -44 6 -46 2z"/>
<path d="M9610 2160 c-6 -11 -8 -20 -6 -20 3 0 10 9 16 20 6 11 8 20 6 20 -3
0 -10 -9 -16 -20z"/>
<path d="M4970 2125 c13 -14 26 -25 28 -25 3 0 -5 11 -18 25 -13 14 -26 25
-28 25 -3 0 5 -11 18 -25z"/>
<path d="M7215 2115 c-104 -13 -196 -24 -202 -24 -9 -1 -13 -18 -13 -52 l0
-52 88 7 89 6 18 -211 19 -211 65 7 c37 4 67 8 68 9 2 1 -7 96 -18 210 -12
114 -20 209 -17 211 2 2 37 7 78 12 l75 8 0 50 c0 49 -1 50 -30 51 -16 1 -115
-9 -220 -21z"/>
<path d="M9583 2118 c-15 -20 -25 -38 -20 -38 3 0 12 11 21 25 17 26 16 35 -1
13z"/>
<path d="M4800 2037 c0 -2 15 -16 33 -33 l32 -29 -29 33 c-28 30 -36 37 -36
29z"/>
<path d="M9404 2008 c-4 -7 -14 -24 -22 -38 -14 -24 -13 -24 3 -5 20 24 37 55
31 55 -3 0 -8 -6 -12 -12z"/>
<path d="M9455 1940 c-25 -33 -44 -60 -41 -60 3 0 26 27 51 60 25 33 44 60 41
60 -3 0 -26 -27 -51 -60z"/>
<path d="M5175 1910 c33 -33 62 -60 64 -60 3 0 -21 27 -54 60 -33 33 -62 60
-64 60 -3 0 21 -27 54 -60z"/>
<path d="M8536 1869 c-22 -18 -26 -28 -26 -75 0 -30 -4 -54 -9 -54 -5 0 -30 9
-56 20 -47 20 -55 19 -88 -8 -17 -15 -12 -18 59 -48 l77 -32 -2 -83 c-1 -46
-5 -88 -9 -93 -3 -6 10 -1 29 10 32 19 34 23 37 82 2 34 7 62 11 62 5 0 31 -9
59 -21 48 -20 51 -20 76 -4 14 10 26 20 26 24 0 4 -36 20 -80 36 l-80 30 6 88
c4 48 5 87 2 87 -3 0 -17 -9 -32 -21z"/>
<path d="M5508 1850 c-50 -9 -82 -32 -102 -73 -50 -107 28 -227 148 -227 68 0
111 27 137 85 52 117 -51 237 -183 215z m110 -86 c32 -37 30 -88 -7 -125 -41
-41 -91 -40 -133 1 -26 27 -30 36 -25 67 14 87 109 120 165 57z"/>
<path d="M9374 1838 l-19 -23 23 19 c21 18 27 26 19 26 -2 0 -12 -10 -23 -22z"/>
<path d="M5030 1808 c24 -27 45 -48 47 -48 8 0 0 9 -44 50 l-48 45 45 -47z"/>
<path d="M9280 1737 c-31 -29 -64 -63 -75 -77 -20 -25 -20 -25 0 -10 11 8 24
20 30 26 5 6 32 34 60 62 63 67 56 66 -15 -1z"/>
<path d="M9189 1718 c-32 -37 -42 -54 -25 -41 15 13 32 20 37 17 5 -3 8 0 7 8
-2 8 4 12 15 10 15 -3 17 1 12 18 -4 12 -1 27 5 35 7 8 10 15 8 15 -3 0 -29
-28 -59 -62z"/>
<path d="M5117 1729 c7 -7 15 -10 18 -7 3 3 -2 9 -12 12 -14 6 -15 5 -6 -5z"/>
<path d="M8203 1672 l-92 -47 60 -125 c34 -69 63 -127 65 -129 3 -3 49 17 104
44 87 43 99 52 94 70 -4 11 -8 22 -10 24 -3 3 -36 -11 -75 -30 -69 -33 -71
-33 -85 -14 -22 30 -17 39 41 68 54 26 63 39 46 65 -7 11 -17 9 -52 -9 -76
-41 -77 -41 -93 -11 l-15 28 67 34 c37 18 68 34 70 36 6 4 -18 44 -26 43 -4 0
-48 -21 -99 -47z"/>
<path d="M5758 1628 c-24 -46 -53 -104 -65 -131 l-22 -47 28 -15 c28 -14 29
-14 52 30 13 25 28 45 34 45 5 0 34 -11 62 -25 51 -23 53 -23 63 -5 15 27 15
27 -50 56 -34 15 -59 30 -58 33 2 3 10 19 18 34 15 32 18 31 101 -6 l56 -26
11 23 c9 21 4 25 -84 69 -52 26 -96 47 -99 47 -3 0 -24 -37 -47 -82z"/>
<path d="M9130 1585 c-24 -25 -42 -45 -39 -45 3 0 25 20 49 45 24 25 42 45 39
45 -3 0 -25 -20 -49 -45z"/>
<path d="M6030 1576 c-4 -11 -26 -68 -49 -126 -22 -58 -41 -110 -41 -116 0
-10 49 -39 55 -32 1 2 10 25 20 51 10 26 23 46 29 44 63 -24 116 -40 119 -37
3 3 7 14 11 25 5 18 -2 23 -52 40 -61 21 -75 43 -49 79 14 18 16 18 81 -5 58
-21 68 -22 76 -9 14 21 12 40 -2 40 -7 1 -53 16 -101 34 -88 34 -88 34 -97 12z"/>
<path d="M7910 1547 c-14 -6 -26 -12 -28 -13 -2 -1 40 -121 89 -251 l8 -22 93
36 c51 20 95 37 97 39 2 2 1 14 -3 28 l-6 24 -65 -26 c-36 -14 -67 -23 -70
-20 -3 2 -22 51 -43 106 -22 56 -41 104 -43 106 -2 2 -15 -1 -29 -7z"/>
<path d="M9016 1531 c-15 -16 -24 -31 -19 -33 4 -3 2 -3 -5 -1 -7 1 -34 -17
-60 -42 -38 -37 -42 -43 -18 -31 16 8 34 13 40 10 6 -2 36 20 67 49 30 28 48
47 40 41 -9 -6 -22 -9 -29 -7 -10 4 -9 9 4 24 27 30 11 22 -20 -10z"/>
<path d="M7736 1490 c-55 -15 -101 -31 -103 -37 -3 -9 62 -262 69 -269 2 -1
16 0 31 3 27 5 28 8 21 42 -14 73 -14 74 51 92 49 13 59 19 57 35 -6 29 -8 29
-73 12 l-60 -16 -10 25 c-16 43 -11 51 49 68 82 23 82 23 82 37 -1 33 -16 34
-114 8z"/>
<path d="M6276 1469 c-18 -14 -26 -30 -26 -50 0 -46 16 -66 75 -100 35 -20 55
-38 55 -49 0 -38 -62 -35 -116 6 -31 23 -32 23 -49 4 -22 -25 -13 -37 49 -66
69 -32 129 -32 161 1 47 46 30 102 -43 139 -62 32 -79 51 -62 71 17 21 48 19
94 -6 35 -18 40 -19 54 -5 13 13 13 17 1 32 -38 46 -147 59 -193 23z"/>
<path d="M6546 1441 c-9 -14 -47 -273 -42 -278 3 -3 52 -14 108 -23 106 -18
117 -16 118 21 0 14 -14 18 -68 24 -87 8 -94 13 -86 54 6 28 10 31 33 27 104
-20 111 -19 111 7 0 19 -6 26 -31 31 -17 3 -41 6 -53 6 -35 0 -48 14 -40 44 7
28 7 28 73 21 36 -4 70 -8 76 -8 5 -1 11 8 13 21 2 12 2 22 0 23 -151 26 -210
34 -212 30z"/>
<path d="M8910 1399 l-35 -30 38 26 c33 24 43 35 34 35 -1 0 -18 -14 -37 -31z"/>
<path d="M6790 1387 c0 -25 20 -37 67 -37 23 0 23 0 16 -120 l-6 -120 31 0
c18 0 33 3 33 8 1 4 4 57 8 117 l6 110 48 -2 c46 -3 47 -2 47 27 l0 30 -87 0
c-49 0 -105 3 -125 6 -36 6 -38 5 -38 -19z"/>
<path d="M7244 1384 c-28 -27 -27 -64 1 -93 12 -12 10 -19 -10 -43 -45 -53
-29 -111 35 -128 43 -12 100 -2 135 24 14 10 23 11 37 3 14 -9 21 -8 35 6 17
17 17 19 0 32 -16 11 -17 19 -9 48 8 29 7 37 -5 41 -28 11 -43 6 -43 -14 0
-23 -17 -25 -42 -6 -23 17 -23 29 2 51 11 10 20 30 20 45 0 40 -29 60 -84 60
-37 0 -52 -5 -72 -26z m101 -24 c8 -13 -13 -50 -29 -50 -20 0 -39 27 -32 45 6
17 51 21 61 5z m0 -142 c40 -26 40 -38 1 -51 -53 -18 -99 26 -64 61 16 16 23
15 63 -10z"/>
<path d="M8844 1378 l-19 -23 23 19 c21 18 27 26 19 26 -2 0 -12 -10 -23 -22z"/>
<path d="M8840 1350 c-31 -24 -47 -26 -29 -3 8 9 -15 -6 -51 -34 -36 -28 -113
-82 -172 -119 -141 -92 -149 -97 -109 -78 111 52 424 257 389 254 -2 0 -14 -9
-28 -20z m-45 -30 c-3 -5 -16 -15 -28 -21 -19 -9 -19 -8 3 10 28 23 34 26 25
11z"/>
</g>
</svg>
